%TF.GenerationSoftware,KiCad,Pcbnew,6.0.8-f2edbf62ab~116~ubuntu20.04.1*%
%TF.CreationDate,2022-11-01T19:33:50+01:00*%
%TF.ProjectId,temp,74656d70-2e6b-4696-9361-645f70636258,rev?*%
%TF.SameCoordinates,Original*%
%TF.FileFunction,Soldermask,Bot*%
%TF.FilePolarity,Negative*%
%FSLAX46Y46*%
G04 Gerber Fmt 4.6, Leading zero omitted, Abs format (unit mm)*
G04 Created by KiCad (PCBNEW 6.0.8-f2edbf62ab~116~ubuntu20.04.1) date 2022-11-01 19:33:50*
%MOMM*%
%LPD*%
G01*
G04 APERTURE LIST*
G04 Aperture macros list*
%AMRoundRect*
0 Rectangle with rounded corners*
0 $1 Rounding radius*
0 $2 $3 $4 $5 $6 $7 $8 $9 X,Y pos of 4 corners*
0 Add a 4 corners polygon primitive as box body*
4,1,4,$2,$3,$4,$5,$6,$7,$8,$9,$2,$3,0*
0 Add four circle primitives for the rounded corners*
1,1,$1+$1,$2,$3*
1,1,$1+$1,$4,$5*
1,1,$1+$1,$6,$7*
1,1,$1+$1,$8,$9*
0 Add four rect primitives between the rounded corners*
20,1,$1+$1,$2,$3,$4,$5,0*
20,1,$1+$1,$4,$5,$6,$7,0*
20,1,$1+$1,$6,$7,$8,$9,0*
20,1,$1+$1,$8,$9,$2,$3,0*%
G04 Aperture macros list end*
%ADD10RoundRect,0.250002X-1.699998X-1.699998X1.699998X-1.699998X1.699998X1.699998X-1.699998X1.699998X0*%
%ADD11R,1.800000X1.800000*%
%ADD12C,1.800000*%
%ADD13C,1.600000*%
%ADD14O,1.600000X1.600000*%
%ADD15C,1.620000*%
%ADD16R,1.600000X1.600000*%
%ADD17R,1.850000X1.850000*%
%ADD18C,1.850000*%
%ADD19R,1.300000X1.300000*%
%ADD20C,1.300000*%
%ADD21R,1.500000X1.050000*%
%ADD22O,1.500000X1.050000*%
%ADD23C,2.000000*%
%ADD24O,2.000000X2.000000*%
%ADD25R,1.700000X1.700000*%
G04 APERTURE END LIST*
D10*
%TO.C,Solar+*%
X152000000Y-37000000D03*
%TD*%
D11*
%TO.C,D7*%
X121537790Y-123461464D03*
D12*
X118997790Y-123461464D03*
%TD*%
D11*
%TO.C,D14*%
X121537790Y-84961464D03*
D12*
X118997790Y-84961464D03*
%TD*%
D13*
%TO.C,R9*%
X143340000Y-108000000D03*
D14*
X153500000Y-108000000D03*
%TD*%
D15*
%TO.C,R6*%
X150500000Y-140000000D03*
X145500000Y-142500000D03*
X150500000Y-145000000D03*
%TD*%
D11*
%TO.C,D3*%
X121500000Y-145500000D03*
D12*
X118960000Y-145500000D03*
%TD*%
D11*
%TO.C,D9*%
X121537790Y-112461464D03*
D12*
X118997790Y-112461464D03*
%TD*%
D16*
%TO.C,U5*%
X138000000Y-106500000D03*
D14*
X138000000Y-103960000D03*
X138000000Y-101420000D03*
X138000000Y-98880000D03*
X138000000Y-96340000D03*
X138000000Y-93800000D03*
X138000000Y-91260000D03*
X138000000Y-88720000D03*
X138000000Y-86180000D03*
X130380000Y-86180000D03*
X130380000Y-88720000D03*
X130380000Y-91260000D03*
X130380000Y-93800000D03*
X130380000Y-96340000D03*
X130380000Y-98880000D03*
X130380000Y-101420000D03*
X130380000Y-103960000D03*
X130380000Y-106500000D03*
%TD*%
D13*
%TO.C,C3*%
X142002515Y-62184058D03*
X137002515Y-62184058D03*
%TD*%
D11*
%TO.C,D12*%
X121537790Y-95961464D03*
D12*
X118997790Y-95961464D03*
%TD*%
D11*
%TO.C,D8*%
X121500000Y-117961464D03*
D12*
X118960000Y-117961464D03*
%TD*%
D11*
%TO.C,D21*%
X121537790Y-46461464D03*
D12*
X118997790Y-46461464D03*
%TD*%
D13*
%TO.C,R4*%
X129194233Y-116483702D03*
D14*
X139354233Y-116483702D03*
%TD*%
D11*
%TO.C,D15*%
X121537790Y-79461464D03*
D12*
X118997790Y-79461464D03*
%TD*%
D16*
%TO.C,C1*%
X138000000Y-80044888D03*
D13*
X138000000Y-82044888D03*
%TD*%
D17*
%TO.C,C2*%
X141500000Y-48000000D03*
D18*
X136500000Y-48000000D03*
%TD*%
D19*
%TO.C,U3*%
X135500000Y-151360000D03*
D20*
X136770000Y-150090000D03*
X138040000Y-151360000D03*
%TD*%
D21*
%TO.C,U1*%
X132500000Y-68000000D03*
D22*
X132500000Y-66730000D03*
X132500000Y-65460000D03*
%TD*%
D15*
%TO.C,R10*%
X150920000Y-111000000D03*
X145920000Y-113500000D03*
X150920000Y-116000000D03*
%TD*%
D11*
%TO.C,D10*%
X121537790Y-106961464D03*
D12*
X118997790Y-106961464D03*
%TD*%
D16*
%TO.C,D1*%
X132386961Y-82438882D03*
D14*
X132386961Y-72278882D03*
%TD*%
D13*
%TO.C,R2*%
X130420000Y-144664602D03*
D14*
X140580000Y-144664602D03*
%TD*%
D13*
%TO.C,R5*%
X142920000Y-136000000D03*
D14*
X153080000Y-136000000D03*
%TD*%
%TO.C,R7*%
X153580000Y-119000000D03*
D13*
X143420000Y-119000000D03*
%TD*%
%TO.C,R11*%
X129093690Y-111555833D03*
D14*
X139253690Y-111555833D03*
%TD*%
D11*
%TO.C,D11*%
X121500000Y-101461464D03*
D12*
X118960000Y-101461464D03*
%TD*%
D11*
%TO.C,D17*%
X121500000Y-68461464D03*
D12*
X118960000Y-68461464D03*
%TD*%
D11*
%TO.C,D4*%
X121500000Y-139952210D03*
D12*
X118960000Y-139952210D03*
%TD*%
D11*
%TO.C,D5*%
X121500000Y-134412210D03*
D12*
X118960000Y-134412210D03*
%TD*%
D11*
%TO.C,D22*%
X121537790Y-40961464D03*
D12*
X118997790Y-40961464D03*
%TD*%
D16*
%TO.C,D2*%
X144500000Y-77850000D03*
D14*
X144500000Y-67690000D03*
%TD*%
D13*
%TO.C,R1*%
X152214143Y-52580000D03*
D14*
X152214143Y-42420000D03*
%TD*%
D13*
%TO.C,R12*%
X144000000Y-100580000D03*
D14*
X144000000Y-90420000D03*
%TD*%
D13*
%TO.C,SW1*%
X151817428Y-92566007D03*
X149317428Y-92566007D03*
%TD*%
D23*
%TO.C,L1*%
X152000000Y-57150000D03*
D24*
X152000000Y-69850000D03*
%TD*%
D25*
%TO.C,GND*%
X132000000Y-60000000D03*
%TD*%
D16*
%TO.C,C5*%
X151749808Y-101066007D03*
D13*
X149249808Y-101066007D03*
%TD*%
D10*
%TO.C,Solar-*%
X152000000Y-151000000D03*
%TD*%
D25*
%TO.C,5V*%
X146000000Y-60000000D03*
%TD*%
D11*
%TO.C,D6*%
X121537790Y-128961464D03*
D12*
X118997790Y-128961464D03*
%TD*%
D15*
%TO.C,R8*%
X150920000Y-122000000D03*
X145920000Y-124500000D03*
X150920000Y-127000000D03*
%TD*%
D11*
%TO.C,D13*%
X121500000Y-90461464D03*
D12*
X118960000Y-90461464D03*
%TD*%
D11*
%TO.C,D18*%
X121500000Y-62961464D03*
D12*
X118960000Y-62961464D03*
%TD*%
D11*
%TO.C,D19*%
X121537790Y-57461464D03*
D12*
X118997790Y-57461464D03*
%TD*%
D11*
%TO.C,D20*%
X121537790Y-51961464D03*
D12*
X118997790Y-51961464D03*
%TD*%
D13*
%TO.C,R3*%
X143420000Y-130000000D03*
D14*
X153580000Y-130000000D03*
%TD*%
D16*
%TO.C,U4*%
X137982822Y-140825461D03*
D14*
X137982822Y-138285461D03*
X137982822Y-135745461D03*
X137982822Y-133205461D03*
X137982822Y-130665461D03*
X137982822Y-128125461D03*
X137982822Y-125585461D03*
X137982822Y-123045461D03*
X137982822Y-120505461D03*
X130362822Y-120505461D03*
X130362822Y-123045461D03*
X130362822Y-125585461D03*
X130362822Y-128125461D03*
X130362822Y-130665461D03*
X130362822Y-133205461D03*
X130362822Y-135745461D03*
X130362822Y-138285461D03*
X130362822Y-140825461D03*
%TD*%
D11*
%TO.C,D16*%
X121537790Y-73961464D03*
D12*
X118997790Y-73961464D03*
%TD*%
D16*
%TO.C,C4*%
X144720494Y-84614342D03*
D13*
X142220494Y-84614342D03*
%TD*%
M02*
