M48
; DRILL file {KiCad 6.0.8-f2edbf62ab~116~ubuntu20.04.1} date tis  1 nov 2022 19:33:53
; FORMAT={-:-/ absolute / inch / decimal}
; #@! TF.CreationDate,2022-11-01T19:33:53+01:00
; #@! TF.GenerationSoftware,Kicad,Pcbnew,6.0.8-f2edbf62ab~116~ubuntu20.04.1
; #@! TF.FileFunction,Plated,1,2,PTH
FMAT,2
INCH
; #@! TA.AperFunction,Plated,PTH,ComponentDrill
T1C0.0295
; #@! TA.AperFunction,Plated,PTH,ComponentDrill
T2C0.0315
; #@! TA.AperFunction,Plated,PTH,ComponentDrill
T3C0.0354
; #@! TA.AperFunction,Plated,PTH,ComponentDrill
T4C0.0394
; #@! TA.AperFunction,Plated,PTH,ComponentDrill
T5C0.0484
; #@! TA.AperFunction,Plated,PTH,ComponentDrill
T6C0.0984
%
G90
G05
T1
X5.2165Y-2.5772
X5.2165Y-2.6272
X5.2165Y-2.6772
X5.3346Y-5.9591
X5.3846Y-5.9091
X5.4346Y-5.9591
T2
X5.0824Y-4.392
X5.0864Y-4.586
X5.1324Y-4.7443
X5.1324Y-4.8443
X5.1324Y-4.9443
X5.1324Y-5.0443
X5.1324Y-5.1443
X5.1324Y-5.2443
X5.1324Y-5.3443
X5.1324Y-5.4443
X5.1324Y-5.5443
X5.1331Y-3.3929
X5.1331Y-3.4929
X5.1331Y-3.5929
X5.1331Y-3.6929
X5.1331Y-3.7929
X5.1331Y-3.8929
X5.1331Y-3.9929
X5.1331Y-4.0929
X5.1331Y-4.1929
X5.1346Y-5.6955
X5.2121Y-2.8456
X5.2121Y-3.2456
X5.3938Y-2.4482
X5.4324Y-4.7443
X5.4324Y-4.8443
X5.4324Y-4.9443
X5.4324Y-5.0443
X5.4324Y-5.1443
X5.4324Y-5.2443
X5.4324Y-5.3443
X5.4324Y-5.4443
X5.4324Y-5.5443
X5.4331Y-3.1514
X5.4331Y-3.2301
X5.4331Y-3.3929
X5.4331Y-3.4929
X5.4331Y-3.5929
X5.4331Y-3.6929
X5.4331Y-3.7929
X5.4331Y-3.8929
X5.4331Y-3.9929
X5.4331Y-4.0929
X5.4331Y-4.1929
X5.4824Y-4.392
X5.4864Y-4.586
X5.5346Y-5.6955
X5.5907Y-2.4482
X5.5992Y-3.3313
X5.6268Y-5.3543
X5.6433Y-4.252
X5.6465Y-4.685
X5.6465Y-5.1181
X5.6693Y-3.5598
X5.6693Y-3.9598
X5.689Y-2.665
X5.689Y-3.065
X5.6977Y-3.3313
X5.876Y-3.979
X5.8786Y-3.6443
X5.9744Y-3.979
X5.9771Y-3.6443
X5.9927Y-1.6701
X5.9927Y-2.0701
X6.0268Y-5.3543
X6.0433Y-4.252
X6.0465Y-4.685
X6.0465Y-5.1181
T3
X4.6835Y-2.4788
X4.6835Y-2.6953
X4.6835Y-3.5615
X4.6835Y-3.9945
X4.6835Y-4.6442
X4.6835Y-5.2918
X4.6835Y-5.5099
X4.6835Y-5.7283
X4.685Y-1.6127
X4.685Y-1.8292
X4.685Y-2.0457
X4.685Y-2.2623
X4.685Y-2.9119
X4.685Y-3.1284
X4.685Y-3.3449
X4.685Y-3.778
X4.685Y-4.2111
X4.685Y-4.4276
X4.685Y-4.8607
X4.685Y-5.0772
X4.7835Y-2.4788
X4.7835Y-2.6953
X4.7835Y-3.5615
X4.7835Y-3.9945
X4.7835Y-4.6442
X4.7835Y-5.2918
X4.7835Y-5.5099
X4.7835Y-5.7283
X4.785Y-1.6127
X4.785Y-1.8292
X4.785Y-2.0457
X4.785Y-2.2623
X4.785Y-2.9119
X4.785Y-3.1284
X4.785Y-3.3449
X4.785Y-3.778
X4.785Y-4.2111
X4.785Y-4.4276
X4.785Y-4.8607
X4.785Y-5.0772
X5.7283Y-5.6102
X5.7449Y-4.4685
X5.7449Y-4.9016
X5.9252Y-5.5118
X5.9252Y-5.7087
X5.9417Y-4.3701
X5.9417Y-4.5669
X5.9417Y-4.8031
X5.9417Y-5.0
T4
X5.1969Y-2.3622
X5.748Y-2.3622
X5.9843Y-2.25
X5.9843Y-2.75
T5
X5.374Y-1.8898
X5.5709Y-1.8898
T6
X5.9843Y-1.4567
X5.9843Y-5.9449
T0
M30
