%TF.GenerationSoftware,KiCad,Pcbnew,6.0.8-f2edbf62ab~116~ubuntu20.04.1*%
%TF.CreationDate,2022-11-01T19:33:54+01:00*%
%TF.ProjectId,temp,74656d70-2e6b-4696-9361-645f70636258,rev?*%
%TF.SameCoordinates,Original*%
%TF.FileFunction,Drillmap*%
%TF.FilePolarity,Positive*%
%FSLAX45Y45*%
G04 Gerber Fmt 4.5, Leading zero omitted, Abs format (unit mm)*
G04 Created by KiCad (PCBNEW 6.0.8-f2edbf62ab~116~ubuntu20.04.1) date 2022-11-01 19:33:54*
%MOMM*%
%LPD*%
G01*
G04 APERTURE LIST*
%ADD10C,0.100000*%
%ADD11C,0.200000*%
%ADD12C,0.075000*%
%ADD13C,0.080000*%
%ADD14C,0.090000*%
%ADD15C,0.123000*%
%ADD16C,0.250000*%
G04 APERTURE END LIST*
D10*
X11700000Y-15400000D02*
X15500000Y-15400000D01*
X15500000Y-15400000D02*
X15500000Y-3400000D01*
X15500000Y-3400000D02*
X11700000Y-3400000D01*
X11700000Y-3400000D02*
X11700000Y-15400000D01*
D11*
D12*
X13212500Y-6508500D02*
X13287500Y-6583500D01*
X13287500Y-6508500D02*
X13212500Y-6583500D01*
X13212500Y-6635500D02*
X13287500Y-6710500D01*
X13287500Y-6635500D02*
X13212500Y-6710500D01*
X13212500Y-6762500D02*
X13287500Y-6837500D01*
X13287500Y-6762500D02*
X13212500Y-6837500D01*
X13512500Y-15098500D02*
X13587500Y-15173500D01*
X13587500Y-15098500D02*
X13512500Y-15173500D01*
X13639500Y-14971500D02*
X13714500Y-15046500D01*
X13714500Y-14971500D02*
X13639500Y-15046500D01*
X13766500Y-15098500D02*
X13841500Y-15173500D01*
X13841500Y-15098500D02*
X13766500Y-15173500D01*
D13*
X12949369Y-11155583D02*
G75*
G03*
X12949369Y-11155583I-40000J0D01*
G01*
X12959423Y-11648370D02*
G75*
G03*
X12959423Y-11648370I-40000J0D01*
G01*
X13076282Y-12050546D02*
G75*
G03*
X13076282Y-12050546I-40000J0D01*
G01*
X13076282Y-12304546D02*
G75*
G03*
X13076282Y-12304546I-40000J0D01*
G01*
X13076282Y-12558546D02*
G75*
G03*
X13076282Y-12558546I-40000J0D01*
G01*
X13076282Y-12812546D02*
G75*
G03*
X13076282Y-12812546I-40000J0D01*
G01*
X13076282Y-13066546D02*
G75*
G03*
X13076282Y-13066546I-40000J0D01*
G01*
X13076282Y-13320546D02*
G75*
G03*
X13076282Y-13320546I-40000J0D01*
G01*
X13076282Y-13574546D02*
G75*
G03*
X13076282Y-13574546I-40000J0D01*
G01*
X13076282Y-13828546D02*
G75*
G03*
X13076282Y-13828546I-40000J0D01*
G01*
X13076282Y-14082546D02*
G75*
G03*
X13076282Y-14082546I-40000J0D01*
G01*
X13078000Y-8618000D02*
G75*
G03*
X13078000Y-8618000I-40000J0D01*
G01*
X13078000Y-8872000D02*
G75*
G03*
X13078000Y-8872000I-40000J0D01*
G01*
X13078000Y-9126000D02*
G75*
G03*
X13078000Y-9126000I-40000J0D01*
G01*
X13078000Y-9380000D02*
G75*
G03*
X13078000Y-9380000I-40000J0D01*
G01*
X13078000Y-9634000D02*
G75*
G03*
X13078000Y-9634000I-40000J0D01*
G01*
X13078000Y-9888000D02*
G75*
G03*
X13078000Y-9888000I-40000J0D01*
G01*
X13078000Y-10142000D02*
G75*
G03*
X13078000Y-10142000I-40000J0D01*
G01*
X13078000Y-10396000D02*
G75*
G03*
X13078000Y-10396000I-40000J0D01*
G01*
X13078000Y-10650000D02*
G75*
G03*
X13078000Y-10650000I-40000J0D01*
G01*
X13082000Y-14466460D02*
G75*
G03*
X13082000Y-14466460I-40000J0D01*
G01*
X13278696Y-7227888D02*
G75*
G03*
X13278696Y-7227888I-40000J0D01*
G01*
X13278696Y-8243888D02*
G75*
G03*
X13278696Y-8243888I-40000J0D01*
G01*
X13740251Y-6218406D02*
G75*
G03*
X13740251Y-6218406I-40000J0D01*
G01*
X13838282Y-12050546D02*
G75*
G03*
X13838282Y-12050546I-40000J0D01*
G01*
X13838282Y-12304546D02*
G75*
G03*
X13838282Y-12304546I-40000J0D01*
G01*
X13838282Y-12558546D02*
G75*
G03*
X13838282Y-12558546I-40000J0D01*
G01*
X13838282Y-12812546D02*
G75*
G03*
X13838282Y-12812546I-40000J0D01*
G01*
X13838282Y-13066546D02*
G75*
G03*
X13838282Y-13066546I-40000J0D01*
G01*
X13838282Y-13320546D02*
G75*
G03*
X13838282Y-13320546I-40000J0D01*
G01*
X13838282Y-13574546D02*
G75*
G03*
X13838282Y-13574546I-40000J0D01*
G01*
X13838282Y-13828546D02*
G75*
G03*
X13838282Y-13828546I-40000J0D01*
G01*
X13838282Y-14082546D02*
G75*
G03*
X13838282Y-14082546I-40000J0D01*
G01*
X13840000Y-8004489D02*
G75*
G03*
X13840000Y-8004489I-40000J0D01*
G01*
X13840000Y-8204489D02*
G75*
G03*
X13840000Y-8204489I-40000J0D01*
G01*
X13840000Y-8618000D02*
G75*
G03*
X13840000Y-8618000I-40000J0D01*
G01*
X13840000Y-8872000D02*
G75*
G03*
X13840000Y-8872000I-40000J0D01*
G01*
X13840000Y-9126000D02*
G75*
G03*
X13840000Y-9126000I-40000J0D01*
G01*
X13840000Y-9380000D02*
G75*
G03*
X13840000Y-9380000I-40000J0D01*
G01*
X13840000Y-9634000D02*
G75*
G03*
X13840000Y-9634000I-40000J0D01*
G01*
X13840000Y-9888000D02*
G75*
G03*
X13840000Y-9888000I-40000J0D01*
G01*
X13840000Y-10142000D02*
G75*
G03*
X13840000Y-10142000I-40000J0D01*
G01*
X13840000Y-10396000D02*
G75*
G03*
X13840000Y-10396000I-40000J0D01*
G01*
X13840000Y-10650000D02*
G75*
G03*
X13840000Y-10650000I-40000J0D01*
G01*
X13965369Y-11155583D02*
G75*
G03*
X13965369Y-11155583I-40000J0D01*
G01*
X13975423Y-11648370D02*
G75*
G03*
X13975423Y-11648370I-40000J0D01*
G01*
X14098000Y-14466460D02*
G75*
G03*
X14098000Y-14466460I-40000J0D01*
G01*
X14240251Y-6218406D02*
G75*
G03*
X14240251Y-6218406I-40000J0D01*
G01*
X14262049Y-8461434D02*
G75*
G03*
X14262049Y-8461434I-40000J0D01*
G01*
X14332000Y-13600000D02*
G75*
G03*
X14332000Y-13600000I-40000J0D01*
G01*
X14374000Y-10800000D02*
G75*
G03*
X14374000Y-10800000I-40000J0D01*
G01*
X14382000Y-11900000D02*
G75*
G03*
X14382000Y-11900000I-40000J0D01*
G01*
X14382000Y-13000000D02*
G75*
G03*
X14382000Y-13000000I-40000J0D01*
G01*
X14440000Y-9042000D02*
G75*
G03*
X14440000Y-9042000I-40000J0D01*
G01*
X14440000Y-10058000D02*
G75*
G03*
X14440000Y-10058000I-40000J0D01*
G01*
X14490000Y-6769000D02*
G75*
G03*
X14490000Y-6769000I-40000J0D01*
G01*
X14490000Y-7785000D02*
G75*
G03*
X14490000Y-7785000I-40000J0D01*
G01*
X14512049Y-8461434D02*
G75*
G03*
X14512049Y-8461434I-40000J0D01*
G01*
X14964981Y-10106601D02*
G75*
G03*
X14964981Y-10106601I-40000J0D01*
G01*
X14971743Y-9256601D02*
G75*
G03*
X14971743Y-9256601I-40000J0D01*
G01*
X15214981Y-10106601D02*
G75*
G03*
X15214981Y-10106601I-40000J0D01*
G01*
X15221743Y-9256601D02*
G75*
G03*
X15221743Y-9256601I-40000J0D01*
G01*
X15261414Y-4242000D02*
G75*
G03*
X15261414Y-4242000I-40000J0D01*
G01*
X15261414Y-5258000D02*
G75*
G03*
X15261414Y-5258000I-40000J0D01*
G01*
X15348000Y-13600000D02*
G75*
G03*
X15348000Y-13600000I-40000J0D01*
G01*
X15390000Y-10800000D02*
G75*
G03*
X15390000Y-10800000I-40000J0D01*
G01*
X15398000Y-11900000D02*
G75*
G03*
X15398000Y-11900000I-40000J0D01*
G01*
X15398000Y-13000000D02*
G75*
G03*
X15398000Y-13000000I-40000J0D01*
G01*
D14*
X11896000Y-6251146D02*
X11896000Y-6341146D01*
X11851000Y-6296146D02*
X11941000Y-6296146D01*
X11896000Y-6801146D02*
X11896000Y-6891146D01*
X11851000Y-6846146D02*
X11941000Y-6846146D01*
X11896000Y-9001146D02*
X11896000Y-9091146D01*
X11851000Y-9046146D02*
X11941000Y-9046146D01*
X11896000Y-10101146D02*
X11896000Y-10191146D01*
X11851000Y-10146146D02*
X11941000Y-10146146D01*
X11896000Y-11751146D02*
X11896000Y-11841146D01*
X11851000Y-11796146D02*
X11941000Y-11796146D01*
X11896000Y-13396221D02*
X11896000Y-13486221D01*
X11851000Y-13441221D02*
X11941000Y-13441221D01*
X11896000Y-13950221D02*
X11896000Y-14040221D01*
X11851000Y-13995221D02*
X11941000Y-13995221D01*
X11896000Y-14505000D02*
X11896000Y-14595000D01*
X11851000Y-14550000D02*
X11941000Y-14550000D01*
X11899779Y-4051146D02*
X11899779Y-4141146D01*
X11854779Y-4096146D02*
X11944779Y-4096146D01*
X11899779Y-4601146D02*
X11899779Y-4691146D01*
X11854779Y-4646146D02*
X11944779Y-4646146D01*
X11899779Y-5151146D02*
X11899779Y-5241146D01*
X11854779Y-5196146D02*
X11944779Y-5196146D01*
X11899779Y-5701146D02*
X11899779Y-5791146D01*
X11854779Y-5746146D02*
X11944779Y-5746146D01*
X11899779Y-7351146D02*
X11899779Y-7441146D01*
X11854779Y-7396146D02*
X11944779Y-7396146D01*
X11899779Y-7901146D02*
X11899779Y-7991146D01*
X11854779Y-7946146D02*
X11944779Y-7946146D01*
X11899779Y-8451146D02*
X11899779Y-8541146D01*
X11854779Y-8496146D02*
X11944779Y-8496146D01*
X11899779Y-9551146D02*
X11899779Y-9641146D01*
X11854779Y-9596146D02*
X11944779Y-9596146D01*
X11899779Y-10651146D02*
X11899779Y-10741146D01*
X11854779Y-10696146D02*
X11944779Y-10696146D01*
X11899779Y-11201146D02*
X11899779Y-11291146D01*
X11854779Y-11246146D02*
X11944779Y-11246146D01*
X11899779Y-12301146D02*
X11899779Y-12391146D01*
X11854779Y-12346146D02*
X11944779Y-12346146D01*
X11899779Y-12851146D02*
X11899779Y-12941146D01*
X11854779Y-12896146D02*
X11944779Y-12896146D01*
X12150000Y-6251146D02*
X12150000Y-6341146D01*
X12105000Y-6296146D02*
X12195000Y-6296146D01*
X12150000Y-6801146D02*
X12150000Y-6891146D01*
X12105000Y-6846146D02*
X12195000Y-6846146D01*
X12150000Y-9001146D02*
X12150000Y-9091146D01*
X12105000Y-9046146D02*
X12195000Y-9046146D01*
X12150000Y-10101146D02*
X12150000Y-10191146D01*
X12105000Y-10146146D02*
X12195000Y-10146146D01*
X12150000Y-11751146D02*
X12150000Y-11841146D01*
X12105000Y-11796146D02*
X12195000Y-11796146D01*
X12150000Y-13396221D02*
X12150000Y-13486221D01*
X12105000Y-13441221D02*
X12195000Y-13441221D01*
X12150000Y-13950221D02*
X12150000Y-14040221D01*
X12105000Y-13995221D02*
X12195000Y-13995221D01*
X12150000Y-14505000D02*
X12150000Y-14595000D01*
X12105000Y-14550000D02*
X12195000Y-14550000D01*
X12153779Y-4051146D02*
X12153779Y-4141146D01*
X12108779Y-4096146D02*
X12198779Y-4096146D01*
X12153779Y-4601146D02*
X12153779Y-4691146D01*
X12108779Y-4646146D02*
X12198779Y-4646146D01*
X12153779Y-5151146D02*
X12153779Y-5241146D01*
X12108779Y-5196146D02*
X12198779Y-5196146D01*
X12153779Y-5701146D02*
X12153779Y-5791146D01*
X12108779Y-5746146D02*
X12198779Y-5746146D01*
X12153779Y-7351146D02*
X12153779Y-7441146D01*
X12108779Y-7396146D02*
X12198779Y-7396146D01*
X12153779Y-7901146D02*
X12153779Y-7991146D01*
X12108779Y-7946146D02*
X12198779Y-7946146D01*
X12153779Y-8451146D02*
X12153779Y-8541146D01*
X12108779Y-8496146D02*
X12198779Y-8496146D01*
X12153779Y-9551146D02*
X12153779Y-9641146D01*
X12108779Y-9596146D02*
X12198779Y-9596146D01*
X12153779Y-10651146D02*
X12153779Y-10741146D01*
X12108779Y-10696146D02*
X12198779Y-10696146D01*
X12153779Y-11201146D02*
X12153779Y-11291146D01*
X12108779Y-11246146D02*
X12198779Y-11246146D01*
X12153779Y-12301146D02*
X12153779Y-12391146D01*
X12108779Y-12346146D02*
X12198779Y-12346146D01*
X12153779Y-12851146D02*
X12153779Y-12941146D01*
X12108779Y-12896146D02*
X12198779Y-12896146D01*
X14550000Y-14205000D02*
X14550000Y-14295000D01*
X14505000Y-14250000D02*
X14595000Y-14250000D01*
X14592000Y-11305000D02*
X14592000Y-11395000D01*
X14547000Y-11350000D02*
X14637000Y-11350000D01*
X14592000Y-12405000D02*
X14592000Y-12495000D01*
X14547000Y-12450000D02*
X14637000Y-12450000D01*
X15050000Y-13955000D02*
X15050000Y-14045000D01*
X15005000Y-14000000D02*
X15095000Y-14000000D01*
X15050000Y-14455000D02*
X15050000Y-14545000D01*
X15005000Y-14500000D02*
X15095000Y-14500000D01*
X15092000Y-11055000D02*
X15092000Y-11145000D01*
X15047000Y-11100000D02*
X15137000Y-11100000D01*
X15092000Y-11555000D02*
X15092000Y-11645000D01*
X15047000Y-11600000D02*
X15137000Y-11600000D01*
X15092000Y-12155000D02*
X15092000Y-12245000D01*
X15047000Y-12200000D02*
X15137000Y-12200000D01*
X15092000Y-12655000D02*
X15092000Y-12745000D01*
X15047000Y-12700000D02*
X15137000Y-12700000D01*
D10*
X13235356Y-6035356D02*
X13235356Y-5964644D01*
X13164644Y-5964644D01*
X13164644Y-6035356D01*
X13235356Y-6035356D01*
X14635356Y-6035356D02*
X14635356Y-5964644D01*
X14564644Y-5964644D01*
X14564644Y-6035356D01*
X14635356Y-6035356D01*
X15235356Y-5750356D02*
X15235356Y-5679644D01*
X15164644Y-5679644D01*
X15164644Y-5750356D01*
X15235356Y-5750356D01*
X15235356Y-7020356D02*
X15235356Y-6949644D01*
X15164644Y-6949644D01*
X15164644Y-7020356D01*
X15235356Y-7020356D01*
D15*
X13650000Y-4861500D02*
X13711500Y-4800000D01*
X13650000Y-4738500D01*
X13588500Y-4800000D01*
X13650000Y-4861500D01*
X14150000Y-4861500D02*
X14211500Y-4800000D01*
X14150000Y-4738500D01*
X14088500Y-4800000D01*
X14150000Y-4861500D01*
D16*
X15075000Y-3575000D02*
X15325000Y-3825000D01*
X15325000Y-3575000D02*
X15075000Y-3825000D01*
X15325000Y-3700000D02*
G75*
G03*
X15325000Y-3700000I-125000J0D01*
G01*
X15075000Y-14975000D02*
X15325000Y-15225000D01*
X15325000Y-14975000D02*
X15075000Y-15225000D01*
X15325000Y-15100000D02*
G75*
G03*
X15325000Y-15100000I-125000J0D01*
G01*
D11*
X11952619Y-15715476D02*
X11952619Y-15515476D01*
X12000238Y-15515476D01*
X12028809Y-15525000D01*
X12047857Y-15544048D01*
X12057381Y-15563095D01*
X12066905Y-15601190D01*
X12066905Y-15629762D01*
X12057381Y-15667857D01*
X12047857Y-15686905D01*
X12028809Y-15705952D01*
X12000238Y-15715476D01*
X11952619Y-15715476D01*
X12152619Y-15715476D02*
X12152619Y-15582143D01*
X12152619Y-15620238D02*
X12162143Y-15601190D01*
X12171667Y-15591667D01*
X12190714Y-15582143D01*
X12209762Y-15582143D01*
X12276428Y-15715476D02*
X12276428Y-15582143D01*
X12276428Y-15515476D02*
X12266905Y-15525000D01*
X12276428Y-15534524D01*
X12285952Y-15525000D01*
X12276428Y-15515476D01*
X12276428Y-15534524D01*
X12400238Y-15715476D02*
X12381190Y-15705952D01*
X12371667Y-15686905D01*
X12371667Y-15515476D01*
X12505000Y-15715476D02*
X12485952Y-15705952D01*
X12476428Y-15686905D01*
X12476428Y-15515476D01*
X12733571Y-15715476D02*
X12733571Y-15515476D01*
X12800238Y-15658333D01*
X12866905Y-15515476D01*
X12866905Y-15715476D01*
X13047857Y-15715476D02*
X13047857Y-15610714D01*
X13038333Y-15591667D01*
X13019286Y-15582143D01*
X12981190Y-15582143D01*
X12962143Y-15591667D01*
X13047857Y-15705952D02*
X13028809Y-15715476D01*
X12981190Y-15715476D01*
X12962143Y-15705952D01*
X12952619Y-15686905D01*
X12952619Y-15667857D01*
X12962143Y-15648809D01*
X12981190Y-15639286D01*
X13028809Y-15639286D01*
X13047857Y-15629762D01*
X13143095Y-15582143D02*
X13143095Y-15782143D01*
X13143095Y-15591667D02*
X13162143Y-15582143D01*
X13200238Y-15582143D01*
X13219286Y-15591667D01*
X13228809Y-15601190D01*
X13238333Y-15620238D01*
X13238333Y-15677381D01*
X13228809Y-15696428D01*
X13219286Y-15705952D01*
X13200238Y-15715476D01*
X13162143Y-15715476D01*
X13143095Y-15705952D01*
X13324048Y-15696428D02*
X13333571Y-15705952D01*
X13324048Y-15715476D01*
X13314524Y-15705952D01*
X13324048Y-15696428D01*
X13324048Y-15715476D01*
X13324048Y-15591667D02*
X13333571Y-15601190D01*
X13324048Y-15610714D01*
X13314524Y-15601190D01*
X13324048Y-15591667D01*
X13324048Y-15610714D01*
D12*
X11620000Y-16007500D02*
X11695000Y-16082500D01*
X11695000Y-16007500D02*
X11620000Y-16082500D01*
D11*
X11990714Y-15935476D02*
X12009762Y-15935476D01*
X12028809Y-15945000D01*
X12038333Y-15954524D01*
X12047857Y-15973571D01*
X12057381Y-16011667D01*
X12057381Y-16059286D01*
X12047857Y-16097381D01*
X12038333Y-16116428D01*
X12028809Y-16125952D01*
X12009762Y-16135476D01*
X11990714Y-16135476D01*
X11971667Y-16125952D01*
X11962143Y-16116428D01*
X11952619Y-16097381D01*
X11943095Y-16059286D01*
X11943095Y-16011667D01*
X11952619Y-15973571D01*
X11962143Y-15954524D01*
X11971667Y-15945000D01*
X11990714Y-15935476D01*
X12143095Y-16116428D02*
X12152619Y-16125952D01*
X12143095Y-16135476D01*
X12133571Y-16125952D01*
X12143095Y-16116428D01*
X12143095Y-16135476D01*
X12219286Y-15935476D02*
X12352619Y-15935476D01*
X12266905Y-16135476D01*
X12524048Y-15935476D02*
X12428809Y-15935476D01*
X12419286Y-16030714D01*
X12428809Y-16021190D01*
X12447857Y-16011667D01*
X12495476Y-16011667D01*
X12514524Y-16021190D01*
X12524048Y-16030714D01*
X12533571Y-16049762D01*
X12533571Y-16097381D01*
X12524048Y-16116428D01*
X12514524Y-16125952D01*
X12495476Y-16135476D01*
X12447857Y-16135476D01*
X12428809Y-16125952D01*
X12419286Y-16116428D01*
X12657381Y-15935476D02*
X12676428Y-15935476D01*
X12695476Y-15945000D01*
X12705000Y-15954524D01*
X12714524Y-15973571D01*
X12724048Y-16011667D01*
X12724048Y-16059286D01*
X12714524Y-16097381D01*
X12705000Y-16116428D01*
X12695476Y-16125952D01*
X12676428Y-16135476D01*
X12657381Y-16135476D01*
X12638333Y-16125952D01*
X12628809Y-16116428D01*
X12619286Y-16097381D01*
X12609762Y-16059286D01*
X12609762Y-16011667D01*
X12619286Y-15973571D01*
X12628809Y-15954524D01*
X12638333Y-15945000D01*
X12657381Y-15935476D01*
X12809762Y-16135476D02*
X12809762Y-16002143D01*
X12809762Y-16021190D02*
X12819286Y-16011667D01*
X12838333Y-16002143D01*
X12866905Y-16002143D01*
X12885952Y-16011667D01*
X12895476Y-16030714D01*
X12895476Y-16135476D01*
X12895476Y-16030714D02*
X12905000Y-16011667D01*
X12924048Y-16002143D01*
X12952619Y-16002143D01*
X12971667Y-16011667D01*
X12981190Y-16030714D01*
X12981190Y-16135476D01*
X13076428Y-16135476D02*
X13076428Y-16002143D01*
X13076428Y-16021190D02*
X13085952Y-16011667D01*
X13105000Y-16002143D01*
X13133571Y-16002143D01*
X13152619Y-16011667D01*
X13162143Y-16030714D01*
X13162143Y-16135476D01*
X13162143Y-16030714D02*
X13171667Y-16011667D01*
X13190714Y-16002143D01*
X13219286Y-16002143D01*
X13238333Y-16011667D01*
X13247857Y-16030714D01*
X13247857Y-16135476D01*
X13638333Y-15925952D02*
X13466905Y-16183095D01*
X13895476Y-15935476D02*
X13914524Y-15935476D01*
X13933571Y-15945000D01*
X13943095Y-15954524D01*
X13952619Y-15973571D01*
X13962143Y-16011667D01*
X13962143Y-16059286D01*
X13952619Y-16097381D01*
X13943095Y-16116428D01*
X13933571Y-16125952D01*
X13914524Y-16135476D01*
X13895476Y-16135476D01*
X13876428Y-16125952D01*
X13866905Y-16116428D01*
X13857381Y-16097381D01*
X13847857Y-16059286D01*
X13847857Y-16011667D01*
X13857381Y-15973571D01*
X13866905Y-15954524D01*
X13876428Y-15945000D01*
X13895476Y-15935476D01*
X14047857Y-16116428D02*
X14057381Y-16125952D01*
X14047857Y-16135476D01*
X14038333Y-16125952D01*
X14047857Y-16116428D01*
X14047857Y-16135476D01*
X14181190Y-15935476D02*
X14200238Y-15935476D01*
X14219286Y-15945000D01*
X14228809Y-15954524D01*
X14238333Y-15973571D01*
X14247857Y-16011667D01*
X14247857Y-16059286D01*
X14238333Y-16097381D01*
X14228809Y-16116428D01*
X14219286Y-16125952D01*
X14200238Y-16135476D01*
X14181190Y-16135476D01*
X14162143Y-16125952D01*
X14152619Y-16116428D01*
X14143095Y-16097381D01*
X14133571Y-16059286D01*
X14133571Y-16011667D01*
X14143095Y-15973571D01*
X14152619Y-15954524D01*
X14162143Y-15945000D01*
X14181190Y-15935476D01*
X14324048Y-15954524D02*
X14333571Y-15945000D01*
X14352619Y-15935476D01*
X14400238Y-15935476D01*
X14419286Y-15945000D01*
X14428809Y-15954524D01*
X14438333Y-15973571D01*
X14438333Y-15992619D01*
X14428809Y-16021190D01*
X14314524Y-16135476D01*
X14438333Y-16135476D01*
X14533571Y-16135476D02*
X14571667Y-16135476D01*
X14590714Y-16125952D01*
X14600238Y-16116428D01*
X14619286Y-16087857D01*
X14628809Y-16049762D01*
X14628809Y-15973571D01*
X14619286Y-15954524D01*
X14609762Y-15945000D01*
X14590714Y-15935476D01*
X14552619Y-15935476D01*
X14533571Y-15945000D01*
X14524048Y-15954524D01*
X14514524Y-15973571D01*
X14514524Y-16021190D01*
X14524048Y-16040238D01*
X14533571Y-16049762D01*
X14552619Y-16059286D01*
X14590714Y-16059286D01*
X14609762Y-16049762D01*
X14619286Y-16040238D01*
X14628809Y-16021190D01*
X14809762Y-15935476D02*
X14714524Y-15935476D01*
X14705000Y-16030714D01*
X14714524Y-16021190D01*
X14733571Y-16011667D01*
X14781190Y-16011667D01*
X14800238Y-16021190D01*
X14809762Y-16030714D01*
X14819286Y-16049762D01*
X14819286Y-16097381D01*
X14809762Y-16116428D01*
X14800238Y-16125952D01*
X14781190Y-16135476D01*
X14733571Y-16135476D01*
X14714524Y-16125952D01*
X14705000Y-16116428D01*
X14895476Y-15935476D02*
X14895476Y-15973571D01*
X14971667Y-15935476D02*
X14971667Y-15973571D01*
X15266905Y-16211667D02*
X15257381Y-16202143D01*
X15238333Y-16173571D01*
X15228809Y-16154524D01*
X15219286Y-16125952D01*
X15209762Y-16078333D01*
X15209762Y-16040238D01*
X15219286Y-15992619D01*
X15228809Y-15964048D01*
X15238333Y-15945000D01*
X15257381Y-15916428D01*
X15266905Y-15906905D01*
X15428809Y-15935476D02*
X15390714Y-15935476D01*
X15371667Y-15945000D01*
X15362143Y-15954524D01*
X15343095Y-15983095D01*
X15333571Y-16021190D01*
X15333571Y-16097381D01*
X15343095Y-16116428D01*
X15352619Y-16125952D01*
X15371667Y-16135476D01*
X15409762Y-16135476D01*
X15428809Y-16125952D01*
X15438333Y-16116428D01*
X15447857Y-16097381D01*
X15447857Y-16049762D01*
X15438333Y-16030714D01*
X15428809Y-16021190D01*
X15409762Y-16011667D01*
X15371667Y-16011667D01*
X15352619Y-16021190D01*
X15343095Y-16030714D01*
X15333571Y-16049762D01*
X15685952Y-16135476D02*
X15685952Y-15935476D01*
X15771667Y-16135476D02*
X15771667Y-16030714D01*
X15762143Y-16011667D01*
X15743095Y-16002143D01*
X15714524Y-16002143D01*
X15695476Y-16011667D01*
X15685952Y-16021190D01*
X15895476Y-16135476D02*
X15876428Y-16125952D01*
X15866905Y-16116428D01*
X15857381Y-16097381D01*
X15857381Y-16040238D01*
X15866905Y-16021190D01*
X15876428Y-16011667D01*
X15895476Y-16002143D01*
X15924048Y-16002143D01*
X15943095Y-16011667D01*
X15952619Y-16021190D01*
X15962143Y-16040238D01*
X15962143Y-16097381D01*
X15952619Y-16116428D01*
X15943095Y-16125952D01*
X15924048Y-16135476D01*
X15895476Y-16135476D01*
X16076428Y-16135476D02*
X16057381Y-16125952D01*
X16047857Y-16106905D01*
X16047857Y-15935476D01*
X16228809Y-16125952D02*
X16209762Y-16135476D01*
X16171667Y-16135476D01*
X16152619Y-16125952D01*
X16143095Y-16106905D01*
X16143095Y-16030714D01*
X16152619Y-16011667D01*
X16171667Y-16002143D01*
X16209762Y-16002143D01*
X16228809Y-16011667D01*
X16238333Y-16030714D01*
X16238333Y-16049762D01*
X16143095Y-16068809D01*
X16314524Y-16125952D02*
X16333571Y-16135476D01*
X16371667Y-16135476D01*
X16390714Y-16125952D01*
X16400238Y-16106905D01*
X16400238Y-16097381D01*
X16390714Y-16078333D01*
X16371667Y-16068809D01*
X16343095Y-16068809D01*
X16324048Y-16059286D01*
X16314524Y-16040238D01*
X16314524Y-16030714D01*
X16324048Y-16011667D01*
X16343095Y-16002143D01*
X16371667Y-16002143D01*
X16390714Y-16011667D01*
X16466905Y-16211667D02*
X16476428Y-16202143D01*
X16495476Y-16173571D01*
X16505000Y-16154524D01*
X16514524Y-16125952D01*
X16524048Y-16078333D01*
X16524048Y-16040238D01*
X16514524Y-15992619D01*
X16505000Y-15964048D01*
X16495476Y-15945000D01*
X16476428Y-15916428D01*
X16466905Y-15906905D01*
D13*
X11695000Y-16309000D02*
G75*
G03*
X11695000Y-16309000I-40000J0D01*
G01*
D11*
X11990714Y-16199476D02*
X12009762Y-16199476D01*
X12028809Y-16209000D01*
X12038333Y-16218524D01*
X12047857Y-16237571D01*
X12057381Y-16275667D01*
X12057381Y-16323286D01*
X12047857Y-16361381D01*
X12038333Y-16380428D01*
X12028809Y-16389952D01*
X12009762Y-16399476D01*
X11990714Y-16399476D01*
X11971667Y-16389952D01*
X11962143Y-16380428D01*
X11952619Y-16361381D01*
X11943095Y-16323286D01*
X11943095Y-16275667D01*
X11952619Y-16237571D01*
X11962143Y-16218524D01*
X11971667Y-16209000D01*
X11990714Y-16199476D01*
X12143095Y-16380428D02*
X12152619Y-16389952D01*
X12143095Y-16399476D01*
X12133571Y-16389952D01*
X12143095Y-16380428D01*
X12143095Y-16399476D01*
X12266905Y-16285190D02*
X12247857Y-16275667D01*
X12238333Y-16266143D01*
X12228809Y-16247095D01*
X12228809Y-16237571D01*
X12238333Y-16218524D01*
X12247857Y-16209000D01*
X12266905Y-16199476D01*
X12305000Y-16199476D01*
X12324048Y-16209000D01*
X12333571Y-16218524D01*
X12343095Y-16237571D01*
X12343095Y-16247095D01*
X12333571Y-16266143D01*
X12324048Y-16275667D01*
X12305000Y-16285190D01*
X12266905Y-16285190D01*
X12247857Y-16294714D01*
X12238333Y-16304238D01*
X12228809Y-16323286D01*
X12228809Y-16361381D01*
X12238333Y-16380428D01*
X12247857Y-16389952D01*
X12266905Y-16399476D01*
X12305000Y-16399476D01*
X12324048Y-16389952D01*
X12333571Y-16380428D01*
X12343095Y-16361381D01*
X12343095Y-16323286D01*
X12333571Y-16304238D01*
X12324048Y-16294714D01*
X12305000Y-16285190D01*
X12466905Y-16199476D02*
X12485952Y-16199476D01*
X12505000Y-16209000D01*
X12514524Y-16218524D01*
X12524048Y-16237571D01*
X12533571Y-16275667D01*
X12533571Y-16323286D01*
X12524048Y-16361381D01*
X12514524Y-16380428D01*
X12505000Y-16389952D01*
X12485952Y-16399476D01*
X12466905Y-16399476D01*
X12447857Y-16389952D01*
X12438333Y-16380428D01*
X12428809Y-16361381D01*
X12419286Y-16323286D01*
X12419286Y-16275667D01*
X12428809Y-16237571D01*
X12438333Y-16218524D01*
X12447857Y-16209000D01*
X12466905Y-16199476D01*
X12657381Y-16199476D02*
X12676428Y-16199476D01*
X12695476Y-16209000D01*
X12705000Y-16218524D01*
X12714524Y-16237571D01*
X12724048Y-16275667D01*
X12724048Y-16323286D01*
X12714524Y-16361381D01*
X12705000Y-16380428D01*
X12695476Y-16389952D01*
X12676428Y-16399476D01*
X12657381Y-16399476D01*
X12638333Y-16389952D01*
X12628809Y-16380428D01*
X12619286Y-16361381D01*
X12609762Y-16323286D01*
X12609762Y-16275667D01*
X12619286Y-16237571D01*
X12628809Y-16218524D01*
X12638333Y-16209000D01*
X12657381Y-16199476D01*
X12809762Y-16399476D02*
X12809762Y-16266143D01*
X12809762Y-16285190D02*
X12819286Y-16275667D01*
X12838333Y-16266143D01*
X12866905Y-16266143D01*
X12885952Y-16275667D01*
X12895476Y-16294714D01*
X12895476Y-16399476D01*
X12895476Y-16294714D02*
X12905000Y-16275667D01*
X12924048Y-16266143D01*
X12952619Y-16266143D01*
X12971667Y-16275667D01*
X12981190Y-16294714D01*
X12981190Y-16399476D01*
X13076428Y-16399476D02*
X13076428Y-16266143D01*
X13076428Y-16285190D02*
X13085952Y-16275667D01*
X13105000Y-16266143D01*
X13133571Y-16266143D01*
X13152619Y-16275667D01*
X13162143Y-16294714D01*
X13162143Y-16399476D01*
X13162143Y-16294714D02*
X13171667Y-16275667D01*
X13190714Y-16266143D01*
X13219286Y-16266143D01*
X13238333Y-16275667D01*
X13247857Y-16294714D01*
X13247857Y-16399476D01*
X13638333Y-16189952D02*
X13466905Y-16447095D01*
X13895476Y-16199476D02*
X13914524Y-16199476D01*
X13933571Y-16209000D01*
X13943095Y-16218524D01*
X13952619Y-16237571D01*
X13962143Y-16275667D01*
X13962143Y-16323286D01*
X13952619Y-16361381D01*
X13943095Y-16380428D01*
X13933571Y-16389952D01*
X13914524Y-16399476D01*
X13895476Y-16399476D01*
X13876428Y-16389952D01*
X13866905Y-16380428D01*
X13857381Y-16361381D01*
X13847857Y-16323286D01*
X13847857Y-16275667D01*
X13857381Y-16237571D01*
X13866905Y-16218524D01*
X13876428Y-16209000D01*
X13895476Y-16199476D01*
X14047857Y-16380428D02*
X14057381Y-16389952D01*
X14047857Y-16399476D01*
X14038333Y-16389952D01*
X14047857Y-16380428D01*
X14047857Y-16399476D01*
X14181190Y-16199476D02*
X14200238Y-16199476D01*
X14219286Y-16209000D01*
X14228809Y-16218524D01*
X14238333Y-16237571D01*
X14247857Y-16275667D01*
X14247857Y-16323286D01*
X14238333Y-16361381D01*
X14228809Y-16380428D01*
X14219286Y-16389952D01*
X14200238Y-16399476D01*
X14181190Y-16399476D01*
X14162143Y-16389952D01*
X14152619Y-16380428D01*
X14143095Y-16361381D01*
X14133571Y-16323286D01*
X14133571Y-16275667D01*
X14143095Y-16237571D01*
X14152619Y-16218524D01*
X14162143Y-16209000D01*
X14181190Y-16199476D01*
X14314524Y-16199476D02*
X14438333Y-16199476D01*
X14371667Y-16275667D01*
X14400238Y-16275667D01*
X14419286Y-16285190D01*
X14428809Y-16294714D01*
X14438333Y-16313762D01*
X14438333Y-16361381D01*
X14428809Y-16380428D01*
X14419286Y-16389952D01*
X14400238Y-16399476D01*
X14343095Y-16399476D01*
X14324048Y-16389952D01*
X14314524Y-16380428D01*
X14628809Y-16399476D02*
X14514524Y-16399476D01*
X14571667Y-16399476D02*
X14571667Y-16199476D01*
X14552619Y-16228048D01*
X14533571Y-16247095D01*
X14514524Y-16256619D01*
X14809762Y-16199476D02*
X14714524Y-16199476D01*
X14705000Y-16294714D01*
X14714524Y-16285190D01*
X14733571Y-16275667D01*
X14781190Y-16275667D01*
X14800238Y-16285190D01*
X14809762Y-16294714D01*
X14819286Y-16313762D01*
X14819286Y-16361381D01*
X14809762Y-16380428D01*
X14800238Y-16389952D01*
X14781190Y-16399476D01*
X14733571Y-16399476D01*
X14714524Y-16389952D01*
X14705000Y-16380428D01*
X14895476Y-16199476D02*
X14895476Y-16237571D01*
X14971667Y-16199476D02*
X14971667Y-16237571D01*
X15266905Y-16475667D02*
X15257381Y-16466143D01*
X15238333Y-16437571D01*
X15228809Y-16418524D01*
X15219286Y-16389952D01*
X15209762Y-16342333D01*
X15209762Y-16304238D01*
X15219286Y-16256619D01*
X15228809Y-16228048D01*
X15238333Y-16209000D01*
X15257381Y-16180428D01*
X15266905Y-16170905D01*
X15428809Y-16199476D02*
X15390714Y-16199476D01*
X15371667Y-16209000D01*
X15362143Y-16218524D01*
X15343095Y-16247095D01*
X15333571Y-16285190D01*
X15333571Y-16361381D01*
X15343095Y-16380428D01*
X15352619Y-16389952D01*
X15371667Y-16399476D01*
X15409762Y-16399476D01*
X15428809Y-16389952D01*
X15438333Y-16380428D01*
X15447857Y-16361381D01*
X15447857Y-16313762D01*
X15438333Y-16294714D01*
X15428809Y-16285190D01*
X15409762Y-16275667D01*
X15371667Y-16275667D01*
X15352619Y-16285190D01*
X15343095Y-16294714D01*
X15333571Y-16313762D01*
X15562143Y-16285190D02*
X15543095Y-16275667D01*
X15533571Y-16266143D01*
X15524048Y-16247095D01*
X15524048Y-16237571D01*
X15533571Y-16218524D01*
X15543095Y-16209000D01*
X15562143Y-16199476D01*
X15600238Y-16199476D01*
X15619286Y-16209000D01*
X15628809Y-16218524D01*
X15638333Y-16237571D01*
X15638333Y-16247095D01*
X15628809Y-16266143D01*
X15619286Y-16275667D01*
X15600238Y-16285190D01*
X15562143Y-16285190D01*
X15543095Y-16294714D01*
X15533571Y-16304238D01*
X15524048Y-16323286D01*
X15524048Y-16361381D01*
X15533571Y-16380428D01*
X15543095Y-16389952D01*
X15562143Y-16399476D01*
X15600238Y-16399476D01*
X15619286Y-16389952D01*
X15628809Y-16380428D01*
X15638333Y-16361381D01*
X15638333Y-16323286D01*
X15628809Y-16304238D01*
X15619286Y-16294714D01*
X15600238Y-16285190D01*
X15876428Y-16399476D02*
X15876428Y-16199476D01*
X15962143Y-16399476D02*
X15962143Y-16294714D01*
X15952619Y-16275667D01*
X15933571Y-16266143D01*
X15905000Y-16266143D01*
X15885952Y-16275667D01*
X15876428Y-16285190D01*
X16085952Y-16399476D02*
X16066905Y-16389952D01*
X16057381Y-16380428D01*
X16047857Y-16361381D01*
X16047857Y-16304238D01*
X16057381Y-16285190D01*
X16066905Y-16275667D01*
X16085952Y-16266143D01*
X16114524Y-16266143D01*
X16133571Y-16275667D01*
X16143095Y-16285190D01*
X16152619Y-16304238D01*
X16152619Y-16361381D01*
X16143095Y-16380428D01*
X16133571Y-16389952D01*
X16114524Y-16399476D01*
X16085952Y-16399476D01*
X16266905Y-16399476D02*
X16247857Y-16389952D01*
X16238333Y-16370905D01*
X16238333Y-16199476D01*
X16419286Y-16389952D02*
X16400238Y-16399476D01*
X16362143Y-16399476D01*
X16343095Y-16389952D01*
X16333571Y-16370905D01*
X16333571Y-16294714D01*
X16343095Y-16275667D01*
X16362143Y-16266143D01*
X16400238Y-16266143D01*
X16419286Y-16275667D01*
X16428809Y-16294714D01*
X16428809Y-16313762D01*
X16333571Y-16332809D01*
X16505000Y-16389952D02*
X16524048Y-16399476D01*
X16562143Y-16399476D01*
X16581190Y-16389952D01*
X16590714Y-16370905D01*
X16590714Y-16361381D01*
X16581190Y-16342333D01*
X16562143Y-16332809D01*
X16533571Y-16332809D01*
X16514524Y-16323286D01*
X16505000Y-16304238D01*
X16505000Y-16294714D01*
X16514524Y-16275667D01*
X16533571Y-16266143D01*
X16562143Y-16266143D01*
X16581190Y-16275667D01*
X16657381Y-16475667D02*
X16666905Y-16466143D01*
X16685952Y-16437571D01*
X16695476Y-16418524D01*
X16705000Y-16389952D01*
X16714524Y-16342333D01*
X16714524Y-16304238D01*
X16705000Y-16256619D01*
X16695476Y-16228048D01*
X16685952Y-16209000D01*
X16666905Y-16180428D01*
X16657381Y-16170905D01*
D14*
X11650000Y-16528000D02*
X11650000Y-16618000D01*
X11605000Y-16573000D02*
X11695000Y-16573000D01*
D11*
X11990714Y-16463476D02*
X12009762Y-16463476D01*
X12028809Y-16473000D01*
X12038333Y-16482524D01*
X12047857Y-16501571D01*
X12057381Y-16539667D01*
X12057381Y-16587286D01*
X12047857Y-16625381D01*
X12038333Y-16644428D01*
X12028809Y-16653952D01*
X12009762Y-16663476D01*
X11990714Y-16663476D01*
X11971667Y-16653952D01*
X11962143Y-16644428D01*
X11952619Y-16625381D01*
X11943095Y-16587286D01*
X11943095Y-16539667D01*
X11952619Y-16501571D01*
X11962143Y-16482524D01*
X11971667Y-16473000D01*
X11990714Y-16463476D01*
X12143095Y-16644428D02*
X12152619Y-16653952D01*
X12143095Y-16663476D01*
X12133571Y-16653952D01*
X12143095Y-16644428D01*
X12143095Y-16663476D01*
X12247857Y-16663476D02*
X12285952Y-16663476D01*
X12305000Y-16653952D01*
X12314524Y-16644428D01*
X12333571Y-16615857D01*
X12343095Y-16577762D01*
X12343095Y-16501571D01*
X12333571Y-16482524D01*
X12324048Y-16473000D01*
X12305000Y-16463476D01*
X12266905Y-16463476D01*
X12247857Y-16473000D01*
X12238333Y-16482524D01*
X12228809Y-16501571D01*
X12228809Y-16549190D01*
X12238333Y-16568238D01*
X12247857Y-16577762D01*
X12266905Y-16587286D01*
X12305000Y-16587286D01*
X12324048Y-16577762D01*
X12333571Y-16568238D01*
X12343095Y-16549190D01*
X12466905Y-16463476D02*
X12485952Y-16463476D01*
X12505000Y-16473000D01*
X12514524Y-16482524D01*
X12524048Y-16501571D01*
X12533571Y-16539667D01*
X12533571Y-16587286D01*
X12524048Y-16625381D01*
X12514524Y-16644428D01*
X12505000Y-16653952D01*
X12485952Y-16663476D01*
X12466905Y-16663476D01*
X12447857Y-16653952D01*
X12438333Y-16644428D01*
X12428809Y-16625381D01*
X12419286Y-16587286D01*
X12419286Y-16539667D01*
X12428809Y-16501571D01*
X12438333Y-16482524D01*
X12447857Y-16473000D01*
X12466905Y-16463476D01*
X12657381Y-16463476D02*
X12676428Y-16463476D01*
X12695476Y-16473000D01*
X12705000Y-16482524D01*
X12714524Y-16501571D01*
X12724048Y-16539667D01*
X12724048Y-16587286D01*
X12714524Y-16625381D01*
X12705000Y-16644428D01*
X12695476Y-16653952D01*
X12676428Y-16663476D01*
X12657381Y-16663476D01*
X12638333Y-16653952D01*
X12628809Y-16644428D01*
X12619286Y-16625381D01*
X12609762Y-16587286D01*
X12609762Y-16539667D01*
X12619286Y-16501571D01*
X12628809Y-16482524D01*
X12638333Y-16473000D01*
X12657381Y-16463476D01*
X12809762Y-16663476D02*
X12809762Y-16530143D01*
X12809762Y-16549190D02*
X12819286Y-16539667D01*
X12838333Y-16530143D01*
X12866905Y-16530143D01*
X12885952Y-16539667D01*
X12895476Y-16558714D01*
X12895476Y-16663476D01*
X12895476Y-16558714D02*
X12905000Y-16539667D01*
X12924048Y-16530143D01*
X12952619Y-16530143D01*
X12971667Y-16539667D01*
X12981190Y-16558714D01*
X12981190Y-16663476D01*
X13076428Y-16663476D02*
X13076428Y-16530143D01*
X13076428Y-16549190D02*
X13085952Y-16539667D01*
X13105000Y-16530143D01*
X13133571Y-16530143D01*
X13152619Y-16539667D01*
X13162143Y-16558714D01*
X13162143Y-16663476D01*
X13162143Y-16558714D02*
X13171667Y-16539667D01*
X13190714Y-16530143D01*
X13219286Y-16530143D01*
X13238333Y-16539667D01*
X13247857Y-16558714D01*
X13247857Y-16663476D01*
X13638333Y-16453952D02*
X13466905Y-16711095D01*
X13895476Y-16463476D02*
X13914524Y-16463476D01*
X13933571Y-16473000D01*
X13943095Y-16482524D01*
X13952619Y-16501571D01*
X13962143Y-16539667D01*
X13962143Y-16587286D01*
X13952619Y-16625381D01*
X13943095Y-16644428D01*
X13933571Y-16653952D01*
X13914524Y-16663476D01*
X13895476Y-16663476D01*
X13876428Y-16653952D01*
X13866905Y-16644428D01*
X13857381Y-16625381D01*
X13847857Y-16587286D01*
X13847857Y-16539667D01*
X13857381Y-16501571D01*
X13866905Y-16482524D01*
X13876428Y-16473000D01*
X13895476Y-16463476D01*
X14047857Y-16644428D02*
X14057381Y-16653952D01*
X14047857Y-16663476D01*
X14038333Y-16653952D01*
X14047857Y-16644428D01*
X14047857Y-16663476D01*
X14181190Y-16463476D02*
X14200238Y-16463476D01*
X14219286Y-16473000D01*
X14228809Y-16482524D01*
X14238333Y-16501571D01*
X14247857Y-16539667D01*
X14247857Y-16587286D01*
X14238333Y-16625381D01*
X14228809Y-16644428D01*
X14219286Y-16653952D01*
X14200238Y-16663476D01*
X14181190Y-16663476D01*
X14162143Y-16653952D01*
X14152619Y-16644428D01*
X14143095Y-16625381D01*
X14133571Y-16587286D01*
X14133571Y-16539667D01*
X14143095Y-16501571D01*
X14152619Y-16482524D01*
X14162143Y-16473000D01*
X14181190Y-16463476D01*
X14314524Y-16463476D02*
X14438333Y-16463476D01*
X14371667Y-16539667D01*
X14400238Y-16539667D01*
X14419286Y-16549190D01*
X14428809Y-16558714D01*
X14438333Y-16577762D01*
X14438333Y-16625381D01*
X14428809Y-16644428D01*
X14419286Y-16653952D01*
X14400238Y-16663476D01*
X14343095Y-16663476D01*
X14324048Y-16653952D01*
X14314524Y-16644428D01*
X14619286Y-16463476D02*
X14524048Y-16463476D01*
X14514524Y-16558714D01*
X14524048Y-16549190D01*
X14543095Y-16539667D01*
X14590714Y-16539667D01*
X14609762Y-16549190D01*
X14619286Y-16558714D01*
X14628809Y-16577762D01*
X14628809Y-16625381D01*
X14619286Y-16644428D01*
X14609762Y-16653952D01*
X14590714Y-16663476D01*
X14543095Y-16663476D01*
X14524048Y-16653952D01*
X14514524Y-16644428D01*
X14800238Y-16530143D02*
X14800238Y-16663476D01*
X14752619Y-16453952D02*
X14705000Y-16596809D01*
X14828809Y-16596809D01*
X14895476Y-16463476D02*
X14895476Y-16501571D01*
X14971667Y-16463476D02*
X14971667Y-16501571D01*
X15266905Y-16739667D02*
X15257381Y-16730143D01*
X15238333Y-16701571D01*
X15228809Y-16682524D01*
X15219286Y-16653952D01*
X15209762Y-16606333D01*
X15209762Y-16568238D01*
X15219286Y-16520619D01*
X15228809Y-16492048D01*
X15238333Y-16473000D01*
X15257381Y-16444428D01*
X15266905Y-16434905D01*
X15428809Y-16530143D02*
X15428809Y-16663476D01*
X15381190Y-16453952D02*
X15333571Y-16596809D01*
X15457381Y-16596809D01*
X15543095Y-16663476D02*
X15581190Y-16663476D01*
X15600238Y-16653952D01*
X15609762Y-16644428D01*
X15628809Y-16615857D01*
X15638333Y-16577762D01*
X15638333Y-16501571D01*
X15628809Y-16482524D01*
X15619286Y-16473000D01*
X15600238Y-16463476D01*
X15562143Y-16463476D01*
X15543095Y-16473000D01*
X15533571Y-16482524D01*
X15524048Y-16501571D01*
X15524048Y-16549190D01*
X15533571Y-16568238D01*
X15543095Y-16577762D01*
X15562143Y-16587286D01*
X15600238Y-16587286D01*
X15619286Y-16577762D01*
X15628809Y-16568238D01*
X15638333Y-16549190D01*
X15876428Y-16663476D02*
X15876428Y-16463476D01*
X15962143Y-16663476D02*
X15962143Y-16558714D01*
X15952619Y-16539667D01*
X15933571Y-16530143D01*
X15905000Y-16530143D01*
X15885952Y-16539667D01*
X15876428Y-16549190D01*
X16085952Y-16663476D02*
X16066905Y-16653952D01*
X16057381Y-16644428D01*
X16047857Y-16625381D01*
X16047857Y-16568238D01*
X16057381Y-16549190D01*
X16066905Y-16539667D01*
X16085952Y-16530143D01*
X16114524Y-16530143D01*
X16133571Y-16539667D01*
X16143095Y-16549190D01*
X16152619Y-16568238D01*
X16152619Y-16625381D01*
X16143095Y-16644428D01*
X16133571Y-16653952D01*
X16114524Y-16663476D01*
X16085952Y-16663476D01*
X16266905Y-16663476D02*
X16247857Y-16653952D01*
X16238333Y-16634905D01*
X16238333Y-16463476D01*
X16419286Y-16653952D02*
X16400238Y-16663476D01*
X16362143Y-16663476D01*
X16343095Y-16653952D01*
X16333571Y-16634905D01*
X16333571Y-16558714D01*
X16343095Y-16539667D01*
X16362143Y-16530143D01*
X16400238Y-16530143D01*
X16419286Y-16539667D01*
X16428809Y-16558714D01*
X16428809Y-16577762D01*
X16333571Y-16596809D01*
X16505000Y-16653952D02*
X16524048Y-16663476D01*
X16562143Y-16663476D01*
X16581190Y-16653952D01*
X16590714Y-16634905D01*
X16590714Y-16625381D01*
X16581190Y-16606333D01*
X16562143Y-16596809D01*
X16533571Y-16596809D01*
X16514524Y-16587286D01*
X16505000Y-16568238D01*
X16505000Y-16558714D01*
X16514524Y-16539667D01*
X16533571Y-16530143D01*
X16562143Y-16530143D01*
X16581190Y-16539667D01*
X16657381Y-16739667D02*
X16666905Y-16730143D01*
X16685952Y-16701571D01*
X16695476Y-16682524D01*
X16705000Y-16653952D01*
X16714524Y-16606333D01*
X16714524Y-16568238D01*
X16705000Y-16520619D01*
X16695476Y-16492048D01*
X16685952Y-16473000D01*
X16666905Y-16444428D01*
X16657381Y-16434905D01*
D10*
X11680356Y-16872356D02*
X11680356Y-16801644D01*
X11609644Y-16801644D01*
X11609644Y-16872356D01*
X11680356Y-16872356D01*
D11*
X12057381Y-16927476D02*
X11943095Y-16927476D01*
X12000238Y-16927476D02*
X12000238Y-16727476D01*
X11981190Y-16756048D01*
X11962143Y-16775095D01*
X11943095Y-16784619D01*
X12143095Y-16908429D02*
X12152619Y-16917952D01*
X12143095Y-16927476D01*
X12133571Y-16917952D01*
X12143095Y-16908429D01*
X12143095Y-16927476D01*
X12276428Y-16727476D02*
X12295476Y-16727476D01*
X12314524Y-16737000D01*
X12324048Y-16746524D01*
X12333571Y-16765571D01*
X12343095Y-16803667D01*
X12343095Y-16851286D01*
X12333571Y-16889381D01*
X12324048Y-16908429D01*
X12314524Y-16917952D01*
X12295476Y-16927476D01*
X12276428Y-16927476D01*
X12257381Y-16917952D01*
X12247857Y-16908429D01*
X12238333Y-16889381D01*
X12228809Y-16851286D01*
X12228809Y-16803667D01*
X12238333Y-16765571D01*
X12247857Y-16746524D01*
X12257381Y-16737000D01*
X12276428Y-16727476D01*
X12466905Y-16727476D02*
X12485952Y-16727476D01*
X12505000Y-16737000D01*
X12514524Y-16746524D01*
X12524048Y-16765571D01*
X12533571Y-16803667D01*
X12533571Y-16851286D01*
X12524048Y-16889381D01*
X12514524Y-16908429D01*
X12505000Y-16917952D01*
X12485952Y-16927476D01*
X12466905Y-16927476D01*
X12447857Y-16917952D01*
X12438333Y-16908429D01*
X12428809Y-16889381D01*
X12419286Y-16851286D01*
X12419286Y-16803667D01*
X12428809Y-16765571D01*
X12438333Y-16746524D01*
X12447857Y-16737000D01*
X12466905Y-16727476D01*
X12657381Y-16727476D02*
X12676428Y-16727476D01*
X12695476Y-16737000D01*
X12705000Y-16746524D01*
X12714524Y-16765571D01*
X12724048Y-16803667D01*
X12724048Y-16851286D01*
X12714524Y-16889381D01*
X12705000Y-16908429D01*
X12695476Y-16917952D01*
X12676428Y-16927476D01*
X12657381Y-16927476D01*
X12638333Y-16917952D01*
X12628809Y-16908429D01*
X12619286Y-16889381D01*
X12609762Y-16851286D01*
X12609762Y-16803667D01*
X12619286Y-16765571D01*
X12628809Y-16746524D01*
X12638333Y-16737000D01*
X12657381Y-16727476D01*
X12809762Y-16927476D02*
X12809762Y-16794143D01*
X12809762Y-16813190D02*
X12819286Y-16803667D01*
X12838333Y-16794143D01*
X12866905Y-16794143D01*
X12885952Y-16803667D01*
X12895476Y-16822714D01*
X12895476Y-16927476D01*
X12895476Y-16822714D02*
X12905000Y-16803667D01*
X12924048Y-16794143D01*
X12952619Y-16794143D01*
X12971667Y-16803667D01*
X12981190Y-16822714D01*
X12981190Y-16927476D01*
X13076428Y-16927476D02*
X13076428Y-16794143D01*
X13076428Y-16813190D02*
X13085952Y-16803667D01*
X13105000Y-16794143D01*
X13133571Y-16794143D01*
X13152619Y-16803667D01*
X13162143Y-16822714D01*
X13162143Y-16927476D01*
X13162143Y-16822714D02*
X13171667Y-16803667D01*
X13190714Y-16794143D01*
X13219286Y-16794143D01*
X13238333Y-16803667D01*
X13247857Y-16822714D01*
X13247857Y-16927476D01*
X13638333Y-16717952D02*
X13466905Y-16975095D01*
X13895476Y-16727476D02*
X13914524Y-16727476D01*
X13933571Y-16737000D01*
X13943095Y-16746524D01*
X13952619Y-16765571D01*
X13962143Y-16803667D01*
X13962143Y-16851286D01*
X13952619Y-16889381D01*
X13943095Y-16908429D01*
X13933571Y-16917952D01*
X13914524Y-16927476D01*
X13895476Y-16927476D01*
X13876428Y-16917952D01*
X13866905Y-16908429D01*
X13857381Y-16889381D01*
X13847857Y-16851286D01*
X13847857Y-16803667D01*
X13857381Y-16765571D01*
X13866905Y-16746524D01*
X13876428Y-16737000D01*
X13895476Y-16727476D01*
X14047857Y-16908429D02*
X14057381Y-16917952D01*
X14047857Y-16927476D01*
X14038333Y-16917952D01*
X14047857Y-16908429D01*
X14047857Y-16927476D01*
X14181190Y-16727476D02*
X14200238Y-16727476D01*
X14219286Y-16737000D01*
X14228809Y-16746524D01*
X14238333Y-16765571D01*
X14247857Y-16803667D01*
X14247857Y-16851286D01*
X14238333Y-16889381D01*
X14228809Y-16908429D01*
X14219286Y-16917952D01*
X14200238Y-16927476D01*
X14181190Y-16927476D01*
X14162143Y-16917952D01*
X14152619Y-16908429D01*
X14143095Y-16889381D01*
X14133571Y-16851286D01*
X14133571Y-16803667D01*
X14143095Y-16765571D01*
X14152619Y-16746524D01*
X14162143Y-16737000D01*
X14181190Y-16727476D01*
X14314524Y-16727476D02*
X14438333Y-16727476D01*
X14371667Y-16803667D01*
X14400238Y-16803667D01*
X14419286Y-16813190D01*
X14428809Y-16822714D01*
X14438333Y-16841762D01*
X14438333Y-16889381D01*
X14428809Y-16908429D01*
X14419286Y-16917952D01*
X14400238Y-16927476D01*
X14343095Y-16927476D01*
X14324048Y-16917952D01*
X14314524Y-16908429D01*
X14533571Y-16927476D02*
X14571667Y-16927476D01*
X14590714Y-16917952D01*
X14600238Y-16908429D01*
X14619286Y-16879857D01*
X14628809Y-16841762D01*
X14628809Y-16765571D01*
X14619286Y-16746524D01*
X14609762Y-16737000D01*
X14590714Y-16727476D01*
X14552619Y-16727476D01*
X14533571Y-16737000D01*
X14524048Y-16746524D01*
X14514524Y-16765571D01*
X14514524Y-16813190D01*
X14524048Y-16832238D01*
X14533571Y-16841762D01*
X14552619Y-16851286D01*
X14590714Y-16851286D01*
X14609762Y-16841762D01*
X14619286Y-16832238D01*
X14628809Y-16813190D01*
X14800238Y-16794143D02*
X14800238Y-16927476D01*
X14752619Y-16717952D02*
X14705000Y-16860810D01*
X14828809Y-16860810D01*
X14895476Y-16727476D02*
X14895476Y-16765571D01*
X14971667Y-16727476D02*
X14971667Y-16765571D01*
X15266905Y-17003667D02*
X15257381Y-16994143D01*
X15238333Y-16965571D01*
X15228809Y-16946524D01*
X15219286Y-16917952D01*
X15209762Y-16870333D01*
X15209762Y-16832238D01*
X15219286Y-16784619D01*
X15228809Y-16756048D01*
X15238333Y-16737000D01*
X15257381Y-16708428D01*
X15266905Y-16698905D01*
X15428809Y-16794143D02*
X15428809Y-16927476D01*
X15381190Y-16717952D02*
X15333571Y-16860810D01*
X15457381Y-16860810D01*
X15685952Y-16927476D02*
X15685952Y-16727476D01*
X15771667Y-16927476D02*
X15771667Y-16822714D01*
X15762143Y-16803667D01*
X15743095Y-16794143D01*
X15714524Y-16794143D01*
X15695476Y-16803667D01*
X15685952Y-16813190D01*
X15895476Y-16927476D02*
X15876428Y-16917952D01*
X15866905Y-16908429D01*
X15857381Y-16889381D01*
X15857381Y-16832238D01*
X15866905Y-16813190D01*
X15876428Y-16803667D01*
X15895476Y-16794143D01*
X15924048Y-16794143D01*
X15943095Y-16803667D01*
X15952619Y-16813190D01*
X15962143Y-16832238D01*
X15962143Y-16889381D01*
X15952619Y-16908429D01*
X15943095Y-16917952D01*
X15924048Y-16927476D01*
X15895476Y-16927476D01*
X16076428Y-16927476D02*
X16057381Y-16917952D01*
X16047857Y-16898905D01*
X16047857Y-16727476D01*
X16228809Y-16917952D02*
X16209762Y-16927476D01*
X16171667Y-16927476D01*
X16152619Y-16917952D01*
X16143095Y-16898905D01*
X16143095Y-16822714D01*
X16152619Y-16803667D01*
X16171667Y-16794143D01*
X16209762Y-16794143D01*
X16228809Y-16803667D01*
X16238333Y-16822714D01*
X16238333Y-16841762D01*
X16143095Y-16860810D01*
X16314524Y-16917952D02*
X16333571Y-16927476D01*
X16371667Y-16927476D01*
X16390714Y-16917952D01*
X16400238Y-16898905D01*
X16400238Y-16889381D01*
X16390714Y-16870333D01*
X16371667Y-16860810D01*
X16343095Y-16860810D01*
X16324048Y-16851286D01*
X16314524Y-16832238D01*
X16314524Y-16822714D01*
X16324048Y-16803667D01*
X16343095Y-16794143D01*
X16371667Y-16794143D01*
X16390714Y-16803667D01*
X16466905Y-17003667D02*
X16476428Y-16994143D01*
X16495476Y-16965571D01*
X16505000Y-16946524D01*
X16514524Y-16917952D01*
X16524048Y-16870333D01*
X16524048Y-16832238D01*
X16514524Y-16784619D01*
X16505000Y-16756048D01*
X16495476Y-16737000D01*
X16476428Y-16708428D01*
X16466905Y-16698905D01*
D15*
X11633500Y-17162500D02*
X11695000Y-17101000D01*
X11633500Y-17039500D01*
X11572000Y-17101000D01*
X11633500Y-17162500D01*
D11*
X12057381Y-17191476D02*
X11943095Y-17191476D01*
X12000238Y-17191476D02*
X12000238Y-16991476D01*
X11981190Y-17020048D01*
X11962143Y-17039095D01*
X11943095Y-17048619D01*
X12143095Y-17172429D02*
X12152619Y-17181952D01*
X12143095Y-17191476D01*
X12133571Y-17181952D01*
X12143095Y-17172429D01*
X12143095Y-17191476D01*
X12228809Y-17010524D02*
X12238333Y-17001000D01*
X12257381Y-16991476D01*
X12305000Y-16991476D01*
X12324048Y-17001000D01*
X12333571Y-17010524D01*
X12343095Y-17029571D01*
X12343095Y-17048619D01*
X12333571Y-17077190D01*
X12219286Y-17191476D01*
X12343095Y-17191476D01*
X12409762Y-16991476D02*
X12533571Y-16991476D01*
X12466905Y-17067667D01*
X12495476Y-17067667D01*
X12514524Y-17077190D01*
X12524048Y-17086714D01*
X12533571Y-17105762D01*
X12533571Y-17153381D01*
X12524048Y-17172429D01*
X12514524Y-17181952D01*
X12495476Y-17191476D01*
X12438333Y-17191476D01*
X12419286Y-17181952D01*
X12409762Y-17172429D01*
X12657381Y-16991476D02*
X12676428Y-16991476D01*
X12695476Y-17001000D01*
X12705000Y-17010524D01*
X12714524Y-17029571D01*
X12724048Y-17067667D01*
X12724048Y-17115286D01*
X12714524Y-17153381D01*
X12705000Y-17172429D01*
X12695476Y-17181952D01*
X12676428Y-17191476D01*
X12657381Y-17191476D01*
X12638333Y-17181952D01*
X12628809Y-17172429D01*
X12619286Y-17153381D01*
X12609762Y-17115286D01*
X12609762Y-17067667D01*
X12619286Y-17029571D01*
X12628809Y-17010524D01*
X12638333Y-17001000D01*
X12657381Y-16991476D01*
X12809762Y-17191476D02*
X12809762Y-17058143D01*
X12809762Y-17077190D02*
X12819286Y-17067667D01*
X12838333Y-17058143D01*
X12866905Y-17058143D01*
X12885952Y-17067667D01*
X12895476Y-17086714D01*
X12895476Y-17191476D01*
X12895476Y-17086714D02*
X12905000Y-17067667D01*
X12924048Y-17058143D01*
X12952619Y-17058143D01*
X12971667Y-17067667D01*
X12981190Y-17086714D01*
X12981190Y-17191476D01*
X13076428Y-17191476D02*
X13076428Y-17058143D01*
X13076428Y-17077190D02*
X13085952Y-17067667D01*
X13105000Y-17058143D01*
X13133571Y-17058143D01*
X13152619Y-17067667D01*
X13162143Y-17086714D01*
X13162143Y-17191476D01*
X13162143Y-17086714D02*
X13171667Y-17067667D01*
X13190714Y-17058143D01*
X13219286Y-17058143D01*
X13238333Y-17067667D01*
X13247857Y-17086714D01*
X13247857Y-17191476D01*
X13638333Y-16981952D02*
X13466905Y-17239095D01*
X13895476Y-16991476D02*
X13914524Y-16991476D01*
X13933571Y-17001000D01*
X13943095Y-17010524D01*
X13952619Y-17029571D01*
X13962143Y-17067667D01*
X13962143Y-17115286D01*
X13952619Y-17153381D01*
X13943095Y-17172429D01*
X13933571Y-17181952D01*
X13914524Y-17191476D01*
X13895476Y-17191476D01*
X13876428Y-17181952D01*
X13866905Y-17172429D01*
X13857381Y-17153381D01*
X13847857Y-17115286D01*
X13847857Y-17067667D01*
X13857381Y-17029571D01*
X13866905Y-17010524D01*
X13876428Y-17001000D01*
X13895476Y-16991476D01*
X14047857Y-17172429D02*
X14057381Y-17181952D01*
X14047857Y-17191476D01*
X14038333Y-17181952D01*
X14047857Y-17172429D01*
X14047857Y-17191476D01*
X14181190Y-16991476D02*
X14200238Y-16991476D01*
X14219286Y-17001000D01*
X14228809Y-17010524D01*
X14238333Y-17029571D01*
X14247857Y-17067667D01*
X14247857Y-17115286D01*
X14238333Y-17153381D01*
X14228809Y-17172429D01*
X14219286Y-17181952D01*
X14200238Y-17191476D01*
X14181190Y-17191476D01*
X14162143Y-17181952D01*
X14152619Y-17172429D01*
X14143095Y-17153381D01*
X14133571Y-17115286D01*
X14133571Y-17067667D01*
X14143095Y-17029571D01*
X14152619Y-17010524D01*
X14162143Y-17001000D01*
X14181190Y-16991476D01*
X14419286Y-17058143D02*
X14419286Y-17191476D01*
X14371667Y-16981952D02*
X14324048Y-17124810D01*
X14447857Y-17124810D01*
X14552619Y-17077190D02*
X14533571Y-17067667D01*
X14524048Y-17058143D01*
X14514524Y-17039095D01*
X14514524Y-17029571D01*
X14524048Y-17010524D01*
X14533571Y-17001000D01*
X14552619Y-16991476D01*
X14590714Y-16991476D01*
X14609762Y-17001000D01*
X14619286Y-17010524D01*
X14628809Y-17029571D01*
X14628809Y-17039095D01*
X14619286Y-17058143D01*
X14609762Y-17067667D01*
X14590714Y-17077190D01*
X14552619Y-17077190D01*
X14533571Y-17086714D01*
X14524048Y-17096238D01*
X14514524Y-17115286D01*
X14514524Y-17153381D01*
X14524048Y-17172429D01*
X14533571Y-17181952D01*
X14552619Y-17191476D01*
X14590714Y-17191476D01*
X14609762Y-17181952D01*
X14619286Y-17172429D01*
X14628809Y-17153381D01*
X14628809Y-17115286D01*
X14619286Y-17096238D01*
X14609762Y-17086714D01*
X14590714Y-17077190D01*
X14800238Y-17058143D02*
X14800238Y-17191476D01*
X14752619Y-16981952D02*
X14705000Y-17124810D01*
X14828809Y-17124810D01*
X14895476Y-16991476D02*
X14895476Y-17029571D01*
X14971667Y-16991476D02*
X14971667Y-17029571D01*
X15266905Y-17267667D02*
X15257381Y-17258143D01*
X15238333Y-17229571D01*
X15228809Y-17210524D01*
X15219286Y-17181952D01*
X15209762Y-17134333D01*
X15209762Y-17096238D01*
X15219286Y-17048619D01*
X15228809Y-17020048D01*
X15238333Y-17001000D01*
X15257381Y-16972429D01*
X15266905Y-16962905D01*
X15333571Y-17010524D02*
X15343095Y-17001000D01*
X15362143Y-16991476D01*
X15409762Y-16991476D01*
X15428809Y-17001000D01*
X15438333Y-17010524D01*
X15447857Y-17029571D01*
X15447857Y-17048619D01*
X15438333Y-17077190D01*
X15324048Y-17191476D01*
X15447857Y-17191476D01*
X15685952Y-17191476D02*
X15685952Y-16991476D01*
X15771667Y-17191476D02*
X15771667Y-17086714D01*
X15762143Y-17067667D01*
X15743095Y-17058143D01*
X15714524Y-17058143D01*
X15695476Y-17067667D01*
X15685952Y-17077190D01*
X15895476Y-17191476D02*
X15876428Y-17181952D01*
X15866905Y-17172429D01*
X15857381Y-17153381D01*
X15857381Y-17096238D01*
X15866905Y-17077190D01*
X15876428Y-17067667D01*
X15895476Y-17058143D01*
X15924048Y-17058143D01*
X15943095Y-17067667D01*
X15952619Y-17077190D01*
X15962143Y-17096238D01*
X15962143Y-17153381D01*
X15952619Y-17172429D01*
X15943095Y-17181952D01*
X15924048Y-17191476D01*
X15895476Y-17191476D01*
X16076428Y-17191476D02*
X16057381Y-17181952D01*
X16047857Y-17162905D01*
X16047857Y-16991476D01*
X16228809Y-17181952D02*
X16209762Y-17191476D01*
X16171667Y-17191476D01*
X16152619Y-17181952D01*
X16143095Y-17162905D01*
X16143095Y-17086714D01*
X16152619Y-17067667D01*
X16171667Y-17058143D01*
X16209762Y-17058143D01*
X16228809Y-17067667D01*
X16238333Y-17086714D01*
X16238333Y-17105762D01*
X16143095Y-17124810D01*
X16314524Y-17181952D02*
X16333571Y-17191476D01*
X16371667Y-17191476D01*
X16390714Y-17181952D01*
X16400238Y-17162905D01*
X16400238Y-17153381D01*
X16390714Y-17134333D01*
X16371667Y-17124810D01*
X16343095Y-17124810D01*
X16324048Y-17115286D01*
X16314524Y-17096238D01*
X16314524Y-17086714D01*
X16324048Y-17067667D01*
X16343095Y-17058143D01*
X16371667Y-17058143D01*
X16390714Y-17067667D01*
X16466905Y-17267667D02*
X16476428Y-17258143D01*
X16495476Y-17229571D01*
X16505000Y-17210524D01*
X16514524Y-17181952D01*
X16524048Y-17134333D01*
X16524048Y-17096238D01*
X16514524Y-17048619D01*
X16505000Y-17020048D01*
X16495476Y-17001000D01*
X16476428Y-16972429D01*
X16466905Y-16962905D01*
X11495000Y-17265000D02*
X11695000Y-17465000D01*
X11695000Y-17265000D02*
X11495000Y-17465000D01*
X11695000Y-17365000D02*
G75*
G03*
X11695000Y-17365000I-100000J0D01*
G01*
X11943095Y-17274524D02*
X11952619Y-17265000D01*
X11971667Y-17255476D01*
X12019286Y-17255476D01*
X12038333Y-17265000D01*
X12047857Y-17274524D01*
X12057381Y-17293571D01*
X12057381Y-17312619D01*
X12047857Y-17341190D01*
X11933571Y-17455476D01*
X12057381Y-17455476D01*
X12143095Y-17436429D02*
X12152619Y-17445952D01*
X12143095Y-17455476D01*
X12133571Y-17445952D01*
X12143095Y-17436429D01*
X12143095Y-17455476D01*
X12333571Y-17255476D02*
X12238333Y-17255476D01*
X12228809Y-17350714D01*
X12238333Y-17341190D01*
X12257381Y-17331667D01*
X12305000Y-17331667D01*
X12324048Y-17341190D01*
X12333571Y-17350714D01*
X12343095Y-17369762D01*
X12343095Y-17417381D01*
X12333571Y-17436429D01*
X12324048Y-17445952D01*
X12305000Y-17455476D01*
X12257381Y-17455476D01*
X12238333Y-17445952D01*
X12228809Y-17436429D01*
X12466905Y-17255476D02*
X12485952Y-17255476D01*
X12505000Y-17265000D01*
X12514524Y-17274524D01*
X12524048Y-17293571D01*
X12533571Y-17331667D01*
X12533571Y-17379286D01*
X12524048Y-17417381D01*
X12514524Y-17436429D01*
X12505000Y-17445952D01*
X12485952Y-17455476D01*
X12466905Y-17455476D01*
X12447857Y-17445952D01*
X12438333Y-17436429D01*
X12428809Y-17417381D01*
X12419286Y-17379286D01*
X12419286Y-17331667D01*
X12428809Y-17293571D01*
X12438333Y-17274524D01*
X12447857Y-17265000D01*
X12466905Y-17255476D01*
X12657381Y-17255476D02*
X12676428Y-17255476D01*
X12695476Y-17265000D01*
X12705000Y-17274524D01*
X12714524Y-17293571D01*
X12724048Y-17331667D01*
X12724048Y-17379286D01*
X12714524Y-17417381D01*
X12705000Y-17436429D01*
X12695476Y-17445952D01*
X12676428Y-17455476D01*
X12657381Y-17455476D01*
X12638333Y-17445952D01*
X12628809Y-17436429D01*
X12619286Y-17417381D01*
X12609762Y-17379286D01*
X12609762Y-17331667D01*
X12619286Y-17293571D01*
X12628809Y-17274524D01*
X12638333Y-17265000D01*
X12657381Y-17255476D01*
X12809762Y-17455476D02*
X12809762Y-17322143D01*
X12809762Y-17341190D02*
X12819286Y-17331667D01*
X12838333Y-17322143D01*
X12866905Y-17322143D01*
X12885952Y-17331667D01*
X12895476Y-17350714D01*
X12895476Y-17455476D01*
X12895476Y-17350714D02*
X12905000Y-17331667D01*
X12924048Y-17322143D01*
X12952619Y-17322143D01*
X12971667Y-17331667D01*
X12981190Y-17350714D01*
X12981190Y-17455476D01*
X13076428Y-17455476D02*
X13076428Y-17322143D01*
X13076428Y-17341190D02*
X13085952Y-17331667D01*
X13105000Y-17322143D01*
X13133571Y-17322143D01*
X13152619Y-17331667D01*
X13162143Y-17350714D01*
X13162143Y-17455476D01*
X13162143Y-17350714D02*
X13171667Y-17331667D01*
X13190714Y-17322143D01*
X13219286Y-17322143D01*
X13238333Y-17331667D01*
X13247857Y-17350714D01*
X13247857Y-17455476D01*
X13638333Y-17245952D02*
X13466905Y-17503095D01*
X13895476Y-17255476D02*
X13914524Y-17255476D01*
X13933571Y-17265000D01*
X13943095Y-17274524D01*
X13952619Y-17293571D01*
X13962143Y-17331667D01*
X13962143Y-17379286D01*
X13952619Y-17417381D01*
X13943095Y-17436429D01*
X13933571Y-17445952D01*
X13914524Y-17455476D01*
X13895476Y-17455476D01*
X13876428Y-17445952D01*
X13866905Y-17436429D01*
X13857381Y-17417381D01*
X13847857Y-17379286D01*
X13847857Y-17331667D01*
X13857381Y-17293571D01*
X13866905Y-17274524D01*
X13876428Y-17265000D01*
X13895476Y-17255476D01*
X14047857Y-17436429D02*
X14057381Y-17445952D01*
X14047857Y-17455476D01*
X14038333Y-17445952D01*
X14047857Y-17436429D01*
X14047857Y-17455476D01*
X14181190Y-17255476D02*
X14200238Y-17255476D01*
X14219286Y-17265000D01*
X14228809Y-17274524D01*
X14238333Y-17293571D01*
X14247857Y-17331667D01*
X14247857Y-17379286D01*
X14238333Y-17417381D01*
X14228809Y-17436429D01*
X14219286Y-17445952D01*
X14200238Y-17455476D01*
X14181190Y-17455476D01*
X14162143Y-17445952D01*
X14152619Y-17436429D01*
X14143095Y-17417381D01*
X14133571Y-17379286D01*
X14133571Y-17331667D01*
X14143095Y-17293571D01*
X14152619Y-17274524D01*
X14162143Y-17265000D01*
X14181190Y-17255476D01*
X14343095Y-17455476D02*
X14381190Y-17455476D01*
X14400238Y-17445952D01*
X14409762Y-17436429D01*
X14428809Y-17407857D01*
X14438333Y-17369762D01*
X14438333Y-17293571D01*
X14428809Y-17274524D01*
X14419286Y-17265000D01*
X14400238Y-17255476D01*
X14362143Y-17255476D01*
X14343095Y-17265000D01*
X14333571Y-17274524D01*
X14324048Y-17293571D01*
X14324048Y-17341190D01*
X14333571Y-17360238D01*
X14343095Y-17369762D01*
X14362143Y-17379286D01*
X14400238Y-17379286D01*
X14419286Y-17369762D01*
X14428809Y-17360238D01*
X14438333Y-17341190D01*
X14552619Y-17341190D02*
X14533571Y-17331667D01*
X14524048Y-17322143D01*
X14514524Y-17303095D01*
X14514524Y-17293571D01*
X14524048Y-17274524D01*
X14533571Y-17265000D01*
X14552619Y-17255476D01*
X14590714Y-17255476D01*
X14609762Y-17265000D01*
X14619286Y-17274524D01*
X14628809Y-17293571D01*
X14628809Y-17303095D01*
X14619286Y-17322143D01*
X14609762Y-17331667D01*
X14590714Y-17341190D01*
X14552619Y-17341190D01*
X14533571Y-17350714D01*
X14524048Y-17360238D01*
X14514524Y-17379286D01*
X14514524Y-17417381D01*
X14524048Y-17436429D01*
X14533571Y-17445952D01*
X14552619Y-17455476D01*
X14590714Y-17455476D01*
X14609762Y-17445952D01*
X14619286Y-17436429D01*
X14628809Y-17417381D01*
X14628809Y-17379286D01*
X14619286Y-17360238D01*
X14609762Y-17350714D01*
X14590714Y-17341190D01*
X14800238Y-17322143D02*
X14800238Y-17455476D01*
X14752619Y-17245952D02*
X14705000Y-17388810D01*
X14828809Y-17388810D01*
X14895476Y-17255476D02*
X14895476Y-17293571D01*
X14971667Y-17255476D02*
X14971667Y-17293571D01*
X15266905Y-17531667D02*
X15257381Y-17522143D01*
X15238333Y-17493571D01*
X15228809Y-17474524D01*
X15219286Y-17445952D01*
X15209762Y-17398333D01*
X15209762Y-17360238D01*
X15219286Y-17312619D01*
X15228809Y-17284048D01*
X15238333Y-17265000D01*
X15257381Y-17236429D01*
X15266905Y-17226905D01*
X15333571Y-17274524D02*
X15343095Y-17265000D01*
X15362143Y-17255476D01*
X15409762Y-17255476D01*
X15428809Y-17265000D01*
X15438333Y-17274524D01*
X15447857Y-17293571D01*
X15447857Y-17312619D01*
X15438333Y-17341190D01*
X15324048Y-17455476D01*
X15447857Y-17455476D01*
X15685952Y-17455476D02*
X15685952Y-17255476D01*
X15771667Y-17455476D02*
X15771667Y-17350714D01*
X15762143Y-17331667D01*
X15743095Y-17322143D01*
X15714524Y-17322143D01*
X15695476Y-17331667D01*
X15685952Y-17341190D01*
X15895476Y-17455476D02*
X15876428Y-17445952D01*
X15866905Y-17436429D01*
X15857381Y-17417381D01*
X15857381Y-17360238D01*
X15866905Y-17341190D01*
X15876428Y-17331667D01*
X15895476Y-17322143D01*
X15924048Y-17322143D01*
X15943095Y-17331667D01*
X15952619Y-17341190D01*
X15962143Y-17360238D01*
X15962143Y-17417381D01*
X15952619Y-17436429D01*
X15943095Y-17445952D01*
X15924048Y-17455476D01*
X15895476Y-17455476D01*
X16076428Y-17455476D02*
X16057381Y-17445952D01*
X16047857Y-17426905D01*
X16047857Y-17255476D01*
X16228809Y-17445952D02*
X16209762Y-17455476D01*
X16171667Y-17455476D01*
X16152619Y-17445952D01*
X16143095Y-17426905D01*
X16143095Y-17350714D01*
X16152619Y-17331667D01*
X16171667Y-17322143D01*
X16209762Y-17322143D01*
X16228809Y-17331667D01*
X16238333Y-17350714D01*
X16238333Y-17369762D01*
X16143095Y-17388810D01*
X16314524Y-17445952D02*
X16333571Y-17455476D01*
X16371667Y-17455476D01*
X16390714Y-17445952D01*
X16400238Y-17426905D01*
X16400238Y-17417381D01*
X16390714Y-17398333D01*
X16371667Y-17388810D01*
X16343095Y-17388810D01*
X16324048Y-17379286D01*
X16314524Y-17360238D01*
X16314524Y-17350714D01*
X16324048Y-17331667D01*
X16343095Y-17322143D01*
X16371667Y-17322143D01*
X16390714Y-17331667D01*
X16466905Y-17531667D02*
X16476428Y-17522143D01*
X16495476Y-17493571D01*
X16505000Y-17474524D01*
X16514524Y-17445952D01*
X16524048Y-17398333D01*
X16524048Y-17360238D01*
X16514524Y-17312619D01*
X16505000Y-17284048D01*
X16495476Y-17265000D01*
X16476428Y-17236429D01*
X16466905Y-17226905D01*
M02*
